# xmcd
#
# Track frame offsets: 
#        150
#        21272
#        40647
#        58195
#        76230
#        79427
#        101390
#        118760
#        138932
#        157602
#        176312
#
# Disc length: 2615 seconds
#
# Revision: 2
# Processed by: cddbd v1.5PL3 Copyright (c) Steve Scherf et al.
# Submitted via: ExactAudioCopy v0.90b4
#
DISCID=7c0a350b
DTITLE=Ronnie Milsap - True Believer
DYEAR=1900
DGENRE=Country
TTITLE0=Desire
TTITLE1=I'm Playing For You
TTITLE2=Somebody's Gonna Get That Girl
TTITLE3=Better Off With The Blues
TTITLE4=Hoss Allen Seque'
TTITLE5=True Believer
TTITLE6=These Foolish Things (Remind Me Of You)
TTITLE7=A Million Years 'Til Then
TTITLE8=Desperate Man
TTITLE9=Civil War
TTITLE10=Please Jesus (Send My Baby Home To Me)
EXTD=
EXTT0=
EXTT1=
EXTT2=
EXTT3=
EXTT4=
EXTT5=
EXTT6=
EXTT7=
EXTT8=
EXTT9=
EXTT10=
PLAYORDER=
